<?xml version="1.0" standalone="no"?>
<!DOCTYPE svg PUBLIC "-//W3C//DTD SVG 20010904//EN"
 "http://www.w3.org/TR/2001/REC-SVG-20010904/DTD/svg10.dtd">
<svg version="1.0" xmlns="http://www.w3.org/2000/svg"
 width="720.000000pt" height="1024.000000pt" viewBox="0 0 720.000000 1024.000000"
 preserveAspectRatio="xMidYMid meet">

<g transform="translate(0.000000,1024.000000) scale(0.100000,-0.100000)"
fill="#000000" stroke="none">
<path d="M0 7590 c0 -2384 2 -2649 15 -2643 9 3 14 8 11 11 -3 3 4 13 16 23
11 11 18 19 14 19 -3 0 1 11 9 24 24 36 80 53 112 33 6 -4 24 -2 39 3 42 16
40 4 -3 -20 -36 -20 -36 -21 -8 -15 l30 6 -30 -21 c-16 -11 -35 -18 -41 -16
-6 2 -17 0 -25 -6 -11 -8 -10 -9 4 -4 9 3 17 1 17 -5 0 -6 6 -7 12 -3 7 4 0
-7 -16 -24 -24 -26 -27 -34 -16 -47 17 -20 23 -19 35 8 6 13 21 23 38 25 15 2
25 8 22 13 -4 5 1 9 10 9 9 0 14 -4 10 -9 -3 -6 4 -15 15 -21 13 -7 19 -17 16
-26 -3 -8 -8 -20 -11 -26 -4 -10 12 -14 55 -15 61 -2 76 8 40 27 -11 6 -20 17
-20 25 0 15 53 30 71 19 6 -3 22 6 36 22 13 16 19 30 14 32 -18 6 -12 20 10
27 12 4 29 14 40 23 42 36 169 68 169 42 0 -5 16 -28 36 -49 28 -32 46 -42 87
-50 94 -18 266 -33 304 -26 24 4 54 0 81 -9 23 -8 42 -11 42 -6 0 13 -50 50
-69 50 -21 0 -101 31 -101 39 0 4 6 15 13 24 11 15 16 15 61 2 91 -28 206 -11
206 30 0 23 -56 80 -120 122 -36 23 -60 45 -60 56 0 10 -15 24 -35 34 -19 9
-32 19 -30 23 2 4 70 10 150 14 111 6 153 4 175 -6 31 -13 40 -28 18 -28 -35
-1 22 -20 62 -21 31 -2 36 -3 15 -6 -105 -12 -126 -28 -55 -39 22 -4 43 -11
46 -16 4 -6 10 -5 16 3 8 12 10 12 15 0 3 -8 16 -24 28 -35 78 -73 107 -103
119 -128 18 -34 11 -39 -40 -28 -61 15 -97 13 -91 -5 4 -8 2 -17 -3 -20 -6 -4
-10 0 -10 9 0 8 -6 17 -12 19 -9 4 -8 6 2 7 17 1 -78 49 -99 49 -8 1 -23 8
-33 18 -22 20 -36 10 -15 -12 9 -8 28 -15 43 -15 36 0 28 -6 -18 -13 -29 -4
-36 -3 -31 9 3 8 1 14 -5 14 -5 0 -12 -8 -16 -17 -3 -10 -9 -24 -12 -32 -5 -9
-3 -11 6 -6 40 24 128 8 172 -32 23 -21 23 -45 1 -42 -42 4 -61 -2 -66 -21 -4
-16 0 -20 18 -20 35 0 39 -16 9 -39 l-27 -21 48 0 c45 0 115 -24 115 -40 0
-15 -45 -27 -69 -18 -14 5 -31 6 -40 3 -11 -4 -8 -10 15 -24 36 -22 58 -47 50
-59 -3 -5 6 -30 19 -57 14 -27 25 -57 25 -67 0 -26 -31 -58 -57 -58 -12 0 -25
-4 -28 -10 -14 -22 -33 -8 -38 28 -3 20 -8 46 -13 57 -6 17 -4 16 12 -4 18
-21 21 -22 33 -7 12 14 11 19 -4 36 -9 10 -14 23 -11 28 9 15 -21 34 -44 27
-15 -5 -32 3 -62 29 -48 41 -54 43 -63 17 -6 -19 -45 -26 -45 -9 0 16 -47 8
-64 -11 -21 -23 -6 -37 23 -22 11 6 33 8 50 5 24 -5 33 -14 42 -43 14 -43 29
-62 36 -43 4 10 9 8 20 -7 8 -12 18 -19 23 -16 6 4 23 -36 17 -41 -7 -6 -176
44 -196 58 -13 10 -47 24 -75 32 -117 33 -244 65 -289 71 -66 9 -179 49 -261
92 -65 33 -121 53 -156 55 -8 0 -25 10 -37 21 l-22 20 -12 -25 c-8 -19 -8 -31
1 -48 27 -51 -48 -69 -141 -35 -24 9 -57 19 -72 22 -19 4 -37 19 -54 44 -14
22 -29 39 -34 39 -14 0 -49 -77 -49 -108 0 -35 20 -55 45 -46 15 6 17 3 11
-19 -3 -15 -2 -27 2 -27 5 0 7 -23 4 -52 -4 -42 -2 -50 10 -46 35 14 43 -8 42
-119 -1 -122 -7 -167 -35 -271 -22 -83 -18 -104 16 -72 l23 21 16 -23 17 -23
17 21 c24 29 62 37 84 17 10 -9 18 -23 18 -31 0 -10 6 -12 23 -7 12 4 41 7 65
6 46 -2 50 3 26 31 -13 14 -14 21 -5 32 9 11 9 16 1 21 -8 5 -9 20 -5 42 4 21
2 40 -5 48 -7 8 -9 19 -5 25 4 6 2 16 -3 23 -6 7 -13 26 -16 42 -3 17 -9 47
-15 68 -5 20 -6 39 -2 41 10 7 54 -51 82 -108 15 -32 63 -88 131 -155 74 -72
124 -131 159 -188 28 -46 65 -94 82 -107 56 -41 181 -76 275 -76 46 0 81 -4
78 -9 -23 -37 -593 -3 -906 55 -89 16 -240 69 -240 84 0 5 20 23 45 41 25 18
43 34 41 36 -7 7 -76 -26 -76 -36 0 -17 -32 -42 -46 -37 -12 5 -14 -266 -14
-1745 l0 -1750 22 21 c13 11 33 23 45 26 63 16 148 -33 158 -91 10 -54 -2 -59
-90 -41 -93 19 -85 19 -85 1 0 -8 11 -22 25 -31 21 -14 31 -15 50 -6 14 6 39
9 55 5 29 -5 30 -6 14 -24 -38 -42 -124 -41 -170 2 l-24 22 0 -192 0 -193 26
31 c45 54 125 54 175 -1 27 -28 32 -30 76 -23 27 3 66 6 88 5 22 -1 731 -4
1575 -6 1301 -4 1540 -3 1565 9 17 8 57 22 90 32 33 9 72 24 87 31 16 9 38 12
53 8 20 -5 24 -3 19 9 -4 11 -1 14 13 11 10 -3 32 2 48 10 34 18 49 20 40 7
-12 -20 15 -21 47 -1 34 21 74 27 63 10 -3 -5 21 -9 62 -8 46 0 67 -3 65 -11
-2 -13 14 -15 22 -2 3 5 15 7 27 4 14 -4 17 -8 9 -13 -21 -13 5 -20 38 -11 26
8 35 5 59 -15 15 -14 40 -36 56 -50 l27 -24 1435 0 1435 0 0 1750 c0 963 -3
1750 -6 1750 -8 0 -74 -72 -74 -81 0 -5 -5 -9 -10 -9 -13 0 -57 -44 -92 -90
-45 -60 -71 -85 -137 -129 -106 -71 -235 -109 -436 -126 -38 -3 -74 -9 -80
-14 -5 -4 -62 -6 -125 -6 -118 2 -289 31 -360 62 -109 47 -170 78 -175 90 -2
8 -10 11 -16 7 -7 -4 -9 -3 -6 3 4 6 -10 15 -31 21 -20 7 -80 45 -133 86 -74
57 -102 86 -121 123 -13 26 -40 77 -60 113 -20 36 -39 83 -43 105 -4 22 -10
45 -14 50 -7 9 -19 45 -63 193 -6 18 -7 43 -3 55 26 85 45 167 45 194 0 17 5
35 10 38 6 3 10 19 10 34 0 18 12 38 36 62 19 18 49 58 66 87 16 29 41 60 54
69 14 9 32 29 40 45 20 38 140 158 159 158 8 0 15 4 15 8 0 12 83 52 108 52
12 0 39 6 59 14 21 8 94 28 163 45 101 25 142 30 218 28 55 -1 93 2 95 8 2 6
20 6 50 -2 26 -7 63 -13 82 -13 18 0 36 -4 40 -9 3 -5 31 -15 63 -22 31 -7 64
-18 72 -24 8 -6 35 -13 60 -14 25 -1 64 -11 88 -22 23 -12 61 -23 85 -26 23
-3 51 -13 62 -22 11 -9 36 -27 55 -40 19 -14 41 -32 48 -40 31 -39 82 -126 87
-152 8 -35 25 -49 56 -48 13 1 32 -2 42 -6 16 -7 17 115 17 2482 l0 2488 -22
10 c-12 6 -30 27 -41 49 -25 47 -15 70 32 74 l31 3 0 390 0 389 -588 0 -589 0
-26 -147 c-14 -82 -64 -350 -110 -598 -47 -247 -113 -603 -147 -790 -35 -187
-66 -343 -69 -347 -10 -11 -466 68 -724 127 -38 8 -108 21 -155 29 -48 8 -211
37 -362 65 -784 146 -1082 201 -1145 212 -38 7 -71 13 -73 15 -2 1 6 51 17
110 11 60 54 294 96 519 42 226 91 493 110 594 19 101 35 189 35 197 0 12 -65
14 -398 14 l-397 0 -1 -137 c-1 -107 -6 -156 -23 -218 -11 -44 -22 -92 -23
-107 -1 -15 -6 -24 -10 -22 -4 3 -5 -10 -3 -28 4 -24 3 -28 -3 -13 -7 16 -12
11 -26 -35 -9 -30 -24 -67 -32 -82 -8 -14 -14 -33 -14 -41 0 -12 -64 -144 -76
-156 -2 -2 -10 2 -19 9 -16 14 -18 76 -3 96 4 6 19 31 31 55 13 24 28 43 33
42 17 -3 34 20 29 38 -4 13 -1 19 9 19 9 0 16 8 16 18 0 10 11 41 25 68 27 52
31 74 15 74 -5 0 -10 -6 -10 -14 0 -15 -24 -28 -34 -19 -13 13 -5 43 10 43 12
0 14 3 6 13 -7 9 -4 26 12 62 26 57 50 148 44 167 -3 7 -11 -9 -18 -35 -12
-40 -34 -66 -47 -54 -2 3 1 24 6 48 7 29 7 45 0 47 -6 3 -6 8 -1 15 5 7 13 42
17 80 l7 67 -450 0 -450 0 -6 -36 c-6 -27 -11 -34 -23 -30 -10 4 -21 -1 -30
-14 -8 -11 -21 -20 -29 -20 -15 0 -14 22 2 83 5 16 -38 17 -800 17 l-806 0 0
-2650z m2605 2060 c-4 -12 -9 -19 -12 -17 -3 3 -2 15 2 27 4 12 9 19 12 17 3
-3 2 -15 -2 -27z m-168 -272 c-3 -8 -6 -5 -6 6 -1 11 2 17 5 13 3 -3 4 -12 1
-19z m31 -102 c-7 -68 -38 -174 -75 -254 -12 -27 -19 -33 -36 -28 -12 3 -26 6
-30 6 -5 0 -5 5 -2 10 3 6 0 10 -7 10 -10 0 -9 3 2 9 8 6 18 7 22 5 4 -3 8 2
8 10 0 20 -17 30 -23 14 -4 -9 -6 -10 -6 -1 -1 6 4 15 9 18 6 3 10 15 10 25 0
10 4 20 8 22 12 5 62 109 62 129 0 10 3 19 8 21 4 2 16 20 26 41 11 20 22 37
26 37 3 0 3 -33 -2 -74z m-1514 -162 c13 -5 13 -12 -4 -55 -11 -27 -20 -67
-20 -89 0 -46 -18 -90 -36 -90 -18 0 -22 48 -7 94 8 23 11 60 7 92 -5 52 -5
54 19 54 14 0 32 -3 41 -6z m846 -171 c47 -8 103 -23 125 -33 22 -10 57 -21
78 -25 28 -6 37 -12 35 -24 -2 -9 -11 -15 -21 -15 -9 1 -17 -3 -17 -10 0 -22
55 -126 66 -122 16 6 48 -94 35 -107 -6 -6 -11 -19 -11 -29 0 -10 -6 -21 -14
-24 -8 -3 -16 -14 -19 -25 -5 -18 -8 -19 -29 -8 -20 11 -85 20 -233 32 -16 1
-38 -1 -48 -6 -12 -5 -27 -2 -46 12 -47 34 -154 81 -183 81 -15 0 -29 4 -33
10 -3 5 -13 7 -23 4 -9 -3 -6 2 8 10 l25 15 -33 1 c-19 0 -32 3 -30 8 2 4 12
25 22 47 58 133 80 171 113 202 36 32 41 34 93 28 30 -3 93 -13 140 -22z
m-1149 -219 c17 -21 -4 -64 -31 -64 -52 0 -83 56 -44 78 20 11 60 4 75 -14z
m784 -104 c-8 -9 -15 -21 -15 -27 0 -6 -7 -13 -15 -17 -8 -3 -15 -14 -15 -25
0 -11 -4 -23 -10 -26 -14 -9 -12 8 7 68 22 71 33 84 50 61 11 -15 10 -20 -2
-34z m1979 -35 c3 -8 15 -15 26 -15 12 0 19 -4 16 -9 -6 -9 8 -15 91 -36 37
-9 53 -10 56 -2 2 7 23 4 61 -11 68 -26 96 -28 96 -7 0 8 5 15 11 15 7 0 9 -9
6 -21 -7 -25 23 -38 80 -37 79 2 95 -1 89 -17 -4 -11 2 -15 24 -15 17 0 30 -4
30 -8 0 -11 68 -32 102 -32 13 0 30 -6 37 -12 11 -10 14 -10 18 0 7 18 53 15
53 -4 0 -12 7 -14 29 -9 21 4 30 2 34 -9 7 -18 67 -22 96 -6 28 14 74 -3 89
-33 11 -22 20 -27 52 -27 21 0 59 -11 87 -25 26 -14 84 -32 128 -40 89 -17
126 -39 83 -50 -17 -4 -35 -1 -52 10 -14 9 -33 15 -43 13 -17 -3 10 -15 109
-47 20 -6 79 -18 131 -26 90 -14 256 -64 282 -85 7 -6 50 -15 96 -21 93 -11
207 -35 226 -47 10 -6 10 -21 2 -63 -36 -189 -81 -414 -108 -539 -18 -80 -34
-156 -37 -169 -4 -20 -7 -22 -15 -10 -7 10 -8 3 -3 -21 l6 -35 -24 23 c-13 12
-30 22 -36 22 -7 0 -12 3 -12 8 0 4 -16 16 -35 26 -26 15 -45 17 -84 12 -51
-7 -107 8 -141 38 -17 15 -51 21 -191 35 -52 5 -109 16 -127 25 -17 9 -50 16
-74 16 -24 0 -50 5 -58 10 -13 8 -12 10 4 10 11 0 17 3 13 6 -3 4 -26 2 -49
-4 -45 -11 -123 -2 -100 12 20 12 3 26 -33 26 -19 0 -44 4 -57 9 -13 4 -58 12
-100 16 -70 6 -78 5 -78 -10 0 -15 -7 -17 -52 -11 -59 8 -88 21 -88 40 0 9
-18 16 -51 20 -28 4 -67 16 -87 26 -21 12 -56 20 -81 20 -37 0 -49 5 -67 27
-17 21 -30 27 -70 28 -27 2 -77 6 -111 10 -39 5 -79 3 -107 -4 -39 -9 -57 -8
-135 13 -50 14 -91 22 -91 19 0 -3 -6 0 -14 6 -8 7 -29 11 -48 10 -18 -2 -49
-2 -68 0 -30 1 -32 3 -17 12 18 11 18 12 -2 30 -11 10 -24 19 -30 19 -5 0 -11
6 -14 13 -3 9 -9 9 -27 -1 -12 -7 -24 -11 -28 -8 -10 11 143 788 164 827 7 15
27 38 44 52 26 22 34 24 62 16 45 -13 55 -11 33 5 -17 12 -14 13 27 14 32 1
48 -3 52 -13z m133 -11 c-3 -3 -12 -4 -19 -1 -8 3 -5 6 6 6 11 1 17 -2 13 -5z
m330 -73 c15 -10 14 -10 -8 -5 -15 3 -30 1 -33 -5 -5 -7 0 -9 11 -5 15 5 16 4
3 -5 -18 -13 -21 -13 -38 -3 -7 5 -10 16 -6 25 7 18 39 17 71 -2z m-2129 -33
c17 -17 15 -70 -3 -94 -8 -10 -15 -31 -15 -46 -1 -73 -36 -98 -95 -67 -19 10
-35 15 -35 9 0 -12 -27 -13 -34 -1 -3 5 3 20 14 34 22 28 12 44 -17 29 -10 -6
-43 -15 -74 -21 -52 -11 -60 -10 -93 10 -20 11 -43 18 -52 15 -20 -8 -11 27
17 66 10 15 19 31 19 37 0 10 24 21 47 21 8 0 28 -11 45 -25 24 -21 40 -25 89
-25 56 0 59 -1 59 -25 0 -17 5 -25 18 -25 12 0 25 18 41 60 24 60 43 74 69 48z
m2343 -18 c16 0 29 -5 29 -11 0 -6 -9 -9 -20 -6 -10 3 -21 0 -22 -5 -3 -7 -11
-7 -26 1 -25 13 -30 36 -6 27 9 -3 29 -6 45 -6z m173 -39 c16 -3 31 -12 34
-18 5 -18 -26 -16 -45 3 -11 10 -26 14 -44 10 -16 -3 -31 -1 -34 4 -7 11 42
11 89 1z m-2401 -58 c42 -22 66 -27 124 -27 39 -1 69 -3 67 -5 -8 -8 18 -41
28 -35 7 4 8 3 4 -4 -4 -7 -3 -19 2 -29 7 -11 6 -21 -2 -29 -6 -8 -17 -20 -24
-29 -20 -24 -103 -20 -138 7 -16 12 -31 25 -34 28 -11 11 -79 60 -84 60 -3 0
-6 -9 -6 -19 0 -37 -12 -51 -41 -51 -33 0 -36 10 -13 45 11 17 13 29 6 42 -8
13 -5 24 10 45 24 35 36 35 101 1z m-14 -166 c13 -16 5 -27 -21 -27 -11 0 -18
7 -18 20 0 23 22 27 39 7z m491 -46 c0 -5 -6 -14 -14 -20 -12 -10 -13 -8 -9 8
5 21 23 30 23 12z m-740 -71 c0 -5 -6 -10 -14 -10 -8 0 -18 5 -21 10 -3 6 3
10 14 10 12 0 21 -4 21 -10z m70 0 c0 -5 9 -10 20 -10 11 0 20 -4 20 -10 0 -5
9 -10 20 -10 11 0 20 -5 20 -10 0 -6 -17 -8 -42 -4 -52 7 -98 23 -98 35 0 6
10 10 53 18 4 0 7 -3 7 -9z m4997 -205 c-18 -61 -20 -78 -8 -71 6 4 11 12 11
17 0 6 7 17 15 25 13 14 15 13 16 -8 1 -13 1 -39 0 -58 -1 -19 3 -48 7 -65 l9
-30 7 30 c4 17 13 50 20 75 13 42 14 43 15 13 1 -17 6 -33 12 -35 6 -2 11 -39
12 -88 2 -47 6 -90 10 -96 3 -6 -2 -19 -13 -29 -20 -18 -28 -65 -11 -65 23 0
17 -39 -9 -62 -26 -22 -29 -23 -33 -7 -3 12 0 16 9 12 10 -3 12 0 8 10 -6 18
-30 12 -38 -9 -9 -22 -25 -17 -58 21 l-31 34 -28 -19 c-54 -39 -116 -16 -106
38 9 50 55 197 75 242 11 25 23 63 26 85 3 22 5 41 6 43 0 1 5 2 11 2 17 0 59
48 60 68 1 9 4 4 8 -13 4 -16 3 -43 -2 -60z m-4816 21 c8 -22 17 -32 26 -29
10 4 11 9 4 16 -15 15 -14 27 4 27 17 0 21 -75 5 -100 -8 -13 -10 -12 -10 3 0
9 -4 17 -10 17 -5 0 -10 -11 -10 -25 0 -14 -5 -25 -10 -25 -6 0 -10 -7 -8 -17
2 -11 -7 -19 -26 -24 -29 -8 -54 -1 -28 8 6 3 12 11 12 19 0 8 6 11 16 7 12
-4 15 0 12 18 -2 19 -10 25 -36 27 -35 4 -66 -13 -56 -30 11 -18 -18 -59 -37
-53 -9 3 -20 1 -24 -5 -9 -15 -25 -12 -25 5 0 8 -5 15 -11 15 -6 0 -8 7 -5 16
7 19 -1 54 -13 54 -4 0 -15 -16 -24 -35 -18 -37 -53 -48 -63 -20 -4 8 -9 13
-13 11 -4 -3 -12 4 -19 14 -12 20 -1 36 18 25 5 -3 17 6 26 20 16 24 43 37 28
13 -5 -8 -2 -9 12 -3 10 4 27 7 37 7 10 0 17 7 17 19 0 10 5 19 10 19 15 0 50
-38 50 -55 0 -17 16 -20 25 -5 3 5 -3 20 -15 32 -27 29 -10 47 23 25 31 -20
64 -12 71 19 9 35 33 30 47 -10z m4194 -606 c8 -14 14 -34 14 -45 0 -17 -2
-15 -15 8 -13 25 -20 27 -62 25 -40 -3 -47 0 -50 17 -2 18 3 20 48 20 45 0 53
-3 65 -25z m131 -433 c1 -67 4 -196 7 -287 7 -193 5 -210 -32 -210 -33 0 -56
-14 -47 -29 4 -6 2 -9 -6 -6 -10 4 -17 -13 -26 -60 -11 -58 -37 -115 -94 -203
-35 -55 -46 -79 -53 -115 -4 -20 -17 -47 -29 -59 -25 -28 -62 -107 -58 -125 2
-9 -9 -13 -30 -14 -33 0 -33 0 -10 -16 24 -17 29 -33 9 -33 -24 0 -38 -22 -25
-38 9 -11 3 -10 -27 3 -22 9 -46 19 -52 22 -17 7 -16 17 2 83 9 30 17 87 18
125 4 92 28 143 110 229 47 50 68 80 72 105 8 45 39 99 140 248 l80 118 6 125
c7 128 26 260 38 260 3 0 7 -55 7 -123z m109 -39 c3 -51 5 -122 3 -158 -2 -36
0 -90 4 -120 l7 -55 -19 70 c-14 52 -19 107 -19 213 -1 79 3 142 8 142 5 0 12
-42 16 -92z m251 44 c-17 -16 -18 -16 -5 5 7 12 15 20 18 17 3 -2 -3 -12 -13
-22z m-1826 -52 c0 -5 -4 -10 -10 -10 -5 0 -10 5 -10 10 0 6 5 10 10 10 6 0
10 -4 10 -10z m-40 -10 c0 -5 -2 -10 -4 -10 -3 0 -8 5 -11 10 -3 6 -1 10 4 10
6 0 11 -4 11 -10z m70 -10 c0 -5 -7 -10 -16 -10 -8 0 -12 5 -9 10 3 6 10 10
16 10 5 0 9 -4 9 -10z m-80 -14 c0 -11 -19 -15 -25 -6 -3 5 1 10 9 10 9 0 16
-2 16 -4z m77 -21 c48 -29 53 -41 21 -51 -13 -3 -32 -15 -42 -26 -23 -25 -33
-12 -36 47 -3 67 -5 66 57 30z m-77 -15 c0 -5 -5 -10 -11 -10 -5 0 -7 5 -4 10
3 6 8 10 11 10 2 0 4 -4 4 -10z m1550 -210 c0 -5 -2 -10 -4 -10 -3 0 -8 5 -11
10 -3 6 -1 10 4 10 6 0 11 -4 11 -10z m-3220 -75 c-7 -9 -15 -13 -19 -10 -3 3
1 10 9 15 21 14 24 12 10 -5z m170 -72 c0 -41 -16 -35 -25 10 -4 17 -9 41 -11
52 -5 18 -3 18 15 -4 13 -14 21 -37 21 -58z m3097 -25 c17 -35 36 -76 41 -93
36 -108 37 -116 1 -57 -13 20 -25 39 -28 42 -4 3 -8 21 -9 40 -2 19 -8 37 -13
38 -5 2 -9 10 -9 18 0 8 -4 14 -9 14 -5 0 -11 14 -13 30 -7 46 5 36 39 -32z
m-3050 2 c-7 -32 1 -36 38 -20 12 5 14 9 6 9 -8 1 -12 4 -8 7 3 3 15 3 26 -1
28 -9 28 -45 0 -45 -11 0 -17 4 -14 10 4 6 -5 7 -23 4 -34 -7 -47 6 -38 42 9
35 20 30 13 -6z m198 -33 c22 -5 66 -11 97 -12 31 -1 64 -8 73 -15 9 -8 26
-15 38 -16 19 -2 52 -9 67 -14 3 -1 16 -3 30 -3 31 -2 36 -40 5 -45 -15 -2
-17 -1 -6 6 10 7 10 11 1 17 -7 4 -17 1 -22 -6 -7 -10 -11 -11 -14 -2 -3 7
-12 9 -20 6 -8 -3 -14 0 -14 6 0 6 -10 11 -22 10 -22 0 -22 -1 -3 -9 11 -5 15
-9 8 -9 -25 -2 -43 12 -43 33 -1 20 -2 20 -14 4 -16 -22 -51 -24 -43 -3 4 8 2
17 -3 20 -6 4 -10 -4 -11 -17 0 -13 -3 -17 -6 -10 -2 6 -9 10 -14 6 -15 -9
-49 6 -49 22 0 20 -18 18 -23 -3 -3 -13 -5 -11 -6 6 -1 23 -2 24 -14 7 -14
-19 -48 -19 -54 1 -2 6 4 13 14 16 14 4 13 5 -4 6 -14 1 -23 -5 -23 -14 0 -8
-7 -15 -15 -15 -16 0 -19 9 -9 34 6 16 14 16 99 -7z m2955 -182 c14 -19 14
-19 -2 -6 -10 7 -18 18 -18 24 0 6 1 8 3 6 1 -2 9 -13 17 -24z m-1740 -39 c0
-2 -9 -6 -20 -9 -11 -3 -18 -1 -14 4 5 9 34 13 34 5z m-66 -31 c-7 -16 -24
-21 -24 -6 0 8 7 13 27 20 1 1 0 -6 -3 -14z m51 -24 c-6 -5 -25 10 -25 20 0 5
6 4 14 -3 8 -7 12 -15 11 -17z m310 -40 c0 -16 -3 -27 -7 -24 -5 2 -8 15 -8
29 0 13 3 24 8 24 4 0 7 -13 7 -29z m71 -26 c-12 -33 -39 -12 -29 23 5 19 7
20 20 6 8 -8 12 -21 9 -29z m-2731 -105 c13 -11 16 -24 11 -58 -10 -75 -21
-85 -77 -79 -27 3 -58 11 -70 17 -19 10 -20 17 -14 58 12 78 19 85 80 80 30
-3 61 -11 70 -18z m1245 -41 c140 -23 290 -137 362 -275 66 -126 99 -325 78
-470 -42 -293 -90 -497 -142 -599 -72 -142 -203 -270 -328 -319 -95 -38 -261
-12 -365 56 -28 18 -86 68 -130 111 -72 71 -78 79 -63 91 16 12 16 14 -7 24
-14 6 -25 17 -25 23 0 11 38 9 110 -6 14 -3 -6 6 -43 19 -122 42 -113 57 18
32 39 -8 72 -12 74 -11 1 2 -37 16 -85 30 -112 34 -129 49 -49 41 l60 -6 -55
16 c-66 18 -66 19 -73 68 l-6 38 57 -6 c44 -4 50 -3 27 4 -16 5 -63 13 -104
16 -72 7 -111 26 -111 55 0 11 44 7 95 -8 18 -5 18 -4 5 12 -23 28 9 45 62 33
22 -5 46 -7 52 -5 6 2 -13 9 -42 16 -31 8 -58 21 -67 34 -12 17 -17 19 -27 9
-17 -17 -28 -15 -28 7 0 29 9 31 80 16 85 -19 97 -17 35 3 -38 13 -50 22 -50
37 0 17 6 20 40 18 l40 -2 -42 15 c-32 12 -43 21 -43 36 0 19 4 20 58 15 l57
-5 -52 16 c-51 17 -82 37 -72 47 3 2 40 -1 82 -9 80 -14 94 -9 29 9 -31 9 -38
16 -40 40 -2 17 -8 36 -14 43 -14 16 17 16 61 1 18 -6 34 -9 37 -7 2 3 -35 18
-83 35 -98 33 -121 54 -46 42 76 -12 93 -9 33 8 -30 8 -60 19 -67 25 -28 23 1
25 89 6 51 -10 100 -17 108 -15 8 1 -25 11 -75 20 -122 24 -125 26 -125 48 0
25 1 24 163 -11 141 -31 165 -34 154 -24 -3 3 -65 19 -139 35 -73 16 -141 32
-150 35 -29 9 -21 26 10 20 15 -3 50 -8 77 -10 49 -6 48 -5 -18 13 -79 22 -86
27 -66 45 12 12 27 11 99 -4 47 -10 87 -17 89 -15 2 2 -7 6 -20 10 -13 3 -53
11 -88 19 -73 17 -73 17 -61 36 7 12 20 12 81 2 39 -7 74 -11 76 -9 2 2 -26
12 -62 22 -40 11 -65 22 -65 31 0 18 29 18 105 -1 96 -23 108 -16 17 10 -92
26 -101 30 -85 46 7 7 33 5 84 -6 109 -22 126 -17 30 10 -94 27 -100 30 -83
47 10 10 31 9 95 -5 45 -9 93 -19 107 -22 35 -7 -43 21 -113 40 -75 22 -64 41
14 26 30 -5 68 -12 84 -15 17 -3 -1 5 -39 17 -67 22 -98 47 -58 47 10 0 76
-12 146 -26 70 -14 131 -24 137 -22 5 2 -53 16 -131 32 -125 26 -139 31 -126
44 18 19 60 18 150 -3 38 -9 70 -14 73 -11 3 2 -30 12 -71 21 -72 16 -92 29
-63 41 7 2 57 -5 111 -16 101 -21 123 -24 115 -15 -3 2 -39 11 -80 20 -104 21
-108 23 -86 40 13 9 28 10 55 4 20 -5 46 -8 57 -8 16 1 15 3 -7 12 -16 6 -28
15 -28 19 0 8 35 5 98 -8 15 -3 21 -1 17 6 -3 5 -13 10 -21 10 -8 0 -14 5 -14
10 0 10 25 8 140 -11z m1299 -270 c89 -30 140 -72 178 -149 35 -70 63 -207 63
-312 0 -87 -134 -712 -164 -762 -55 -94 -216 -219 -302 -235 -150 -28 -359 87
-398 220 -14 44 -15 84 -10 230 7 170 6 178 -15 212 -19 31 -19 36 -5 47 25
22 34 45 74 204 57 223 99 308 219 438 112 122 221 154 360 107z m-3560 -138
c46 -11 91 -26 100 -34 9 -8 23 -17 31 -19 8 -3 -34 -3 -95 -1 -75 3 -129 0
-170 -10 -59 -14 -62 -13 -115 10 -30 14 -81 27 -112 30 -55 5 -58 5 -67 -21
-6 -14 -16 -26 -22 -26 -6 0 -39 -19 -73 -43 -34 -24 -69 -46 -79 -50 -9 -3
-21 -17 -26 -29 -5 -13 -23 -31 -40 -41 -37 -22 -42 -5 -6 19 38 25 25 27 -23
4 -46 -22 -78 -26 -84 -8 -3 7 -37 -7 -91 -35 -47 -26 -88 -47 -90 -47 -2 0
-3 10 -3 21 1 12 -5 24 -11 26 -7 3 -13 -3 -13 -13 0 -14 -3 -15 -12 -6 -9 9
-7 16 8 33 10 11 19 28 19 37 0 9 18 27 40 39 29 16 35 23 20 23 -11 0 3 9 30
19 84 30 199 72 220 81 11 4 47 13 80 20 33 6 80 16 105 22 97 22 130 25 260
22 91 -2 162 -10 219 -23z m-439 -150 c0 -13 -11 -23 -35 -31 -19 -6 -35 -15
-35 -18 0 -4 -11 -7 -25 -7 -14 0 -25 1 -25 2 0 7 97 73 108 73 6 0 12 -9 12
-19z m841 -15 c85 -36 261 -205 300 -288 12 -26 31 -50 41 -54 24 -7 76 -51
88 -75 15 -28 -11 -81 -56 -115 -52 -40 -161 -46 -246 -14 -63 23 -63 23 -48
50 9 17 13 18 45 4 19 -7 57 -14 84 -14 60 0 91 26 91 75 0 43 -23 71 -86 106
-30 17 -52 35 -49 40 3 4 2 16 -3 26 -28 56 -43 78 -52 76 -5 -2 -10 4 -10 12
0 8 -7 15 -17 15 -9 0 -13 3 -10 7 4 3 -13 26 -38 51 -33 32 -51 43 -66 39
-16 -4 -18 -3 -9 8 8 10 8 15 -1 21 -8 4 -9 3 -5 -4 4 -7 1 -12 -7 -12 -9 0
-14 11 -14 30 0 35 15 38 68 16z m-821 -64 c0 -5 -12 -14 -27 -21 -39 -18
-206 -62 -212 -56 -8 8 32 34 54 35 11 1 40 12 65 25 43 23 120 34 120 17z
m40 -2 c0 -5 -5 -10 -11 -10 -5 0 -7 5 -4 10 3 6 8 10 11 10 2 0 4 -4 4 -10z
m1925 -54 c18 -8 39 -24 45 -37 11 -20 11 -21 -11 -15 -13 3 -45 12 -71 18
-51 12 -58 21 -30 37 23 14 27 13 67 -3z m-2480 -46 c-3 -5 -11 -10 -16 -10
-6 0 -7 5 -4 10 3 6 11 10 16 10 6 0 7 -4 4 -10z m695 -58 c3 -3 -11 -2 -30 2
-19 3 -42 13 -50 22 -13 13 -8 13 30 -2 25 -9 47 -19 50 -22z m1725 -7 c11 -2
26 -4 33 -4 6 -1 12 -12 12 -26 0 -24 -3 -26 -37 -20 l-38 5 33 -15 c17 -8 32
-19 32 -25 0 -12 -63 -24 -89 -15 -18 5 -20 12 -15 48 9 63 12 70 32 62 9 -4
26 -9 37 -10z m-25 -150 c-13 -16 -40 -9 -40 9 0 21 12 26 32 15 15 -8 17 -13
8 -24z m20 -65 c9 -16 8 -20 -5 -20 -20 0 -57 38 -50 50 8 14 42 -5 55 -30z
m-796 -187 c-9 -7 -14 -19 -11 -27 4 -9 2 -18 -3 -21 -5 -3 -6 -22 -4 -43 l5
-37 -16 28 c-18 31 -13 75 13 115 11 18 17 20 23 10 6 -8 3 -18 -7 -25z m-34
-134 c0 -5 -4 -9 -10 -9 -5 0 -10 7 -10 16 0 8 5 12 10 9 6 -3 10 -10 10 -16z
m-193 -56 c-9 -9 -20 -13 -24 -9 -4 4 1 14 11 22 25 18 35 8 13 -13z m-1480
-25 c-3 -7 -5 -2 -5 12 0 14 2 19 5 13 2 -7 2 -19 0 -25z m1698 -251 c10 -59
26 -104 45 -136 31 -50 42 -93 15 -57 -20 27 -28 15 -14 -20 34 -85 62 -174
56 -180 -9 -9 -37 27 -37 47 0 11 -11 35 -24 52 -14 18 -27 44 -31 59 -8 31
-21 44 -49 49 -11 2 -21 10 -24 18 -3 10 2 11 18 6 20 -6 22 -5 17 16 -4 13
-7 30 -7 37 0 6 -4 12 -10 12 -5 0 -10 -9 -10 -21 0 -35 -22 -16 -36 32 -15
48 -17 149 -4 189 5 17 8 19 9 8 2 -33 30 -19 37 18 l7 37 13 -39 c7 -21 20
-79 29 -127z m1070 113 c3 -5 -3 -10 -14 -10 -12 0 -21 5 -21 10 0 6 6 10 14
10 8 0 18 -4 21 -10z m83 -65 c80 -49 155 -73 269 -86 54 -6 100 -12 102 -14
2 -2 -4 -46 -13 -98 -20 -118 -20 -138 -2 -131 18 7 28 -9 20 -30 -10 -25 -85
-65 -135 -72 -136 -18 -327 74 -393 190 -22 39 -24 49 -17 134 1 11 14 12 54
8 l52 -6 -39 13 c-59 18 -58 37 1 26 26 -5 57 -12 68 -15 13 -4 16 -3 10 3 -5
6 -31 16 -57 23 -59 15 -64 31 -7 19 58 -13 62 -2 5 13 -49 13 -61 28 -23 28
l22 1 -23 12 c-12 7 -19 17 -15 21 13 13 63 -2 121 -39z m-198 -75 c0 -13 -28
-25 -38 -16 -3 4 0 11 8 16 20 13 30 12 30 0z m-30 -50 c0 -5 -7 -10 -15 -10
-8 0 -15 5 -15 10 0 6 7 10 15 10 8 0 15 -4 15 -10z m-90 -25 c7 -9 10 -18 7
-21 -7 -7 -77 7 -77 15 0 25 51 29 70 6z m833 -194 c25 -75 48 -151 52 -169 8
-41 47 -62 112 -62 53 0 93 21 93 48 0 10 15 26 33 37 l32 20 -41 5 c-75 11
-177 103 -160 146 8 21 22 10 53 -39 l26 -42 9 26 c6 19 17 28 39 31 28 4 32
1 55 -46 14 -28 43 -67 65 -86 52 -45 46 -60 -39 -102 -58 -29 -77 -33 -142
-32 -64 0 -82 4 -123 28 -61 36 -83 67 -142 196 -56 124 -60 143 -45 199 l11
44 34 -33 c27 -26 42 -59 78 -169z m-734 175 c9 -10 9 -16 1 -21 -16 -10 -40
2 -40 20 0 19 24 20 39 1z m-263 -20 c27 -8 68 -20 92 -26 25 -6 42 -17 42
-25 0 -21 -34 -18 -54 4 -14 15 -22 17 -35 9 -24 -15 -115 12 -119 35 -4 21
10 21 74 3z m124 -6 c0 -13 -20 -13 -40 0 -12 8 -9 10 13 10 15 0 27 -4 27
-10z m-1086 -33 c27 -35 36 -61 14 -39 -17 17 -31 15 -24 -3 5 -13 2 -14 -17
-4 -21 11 -21 10 3 -17 14 -16 32 -34 40 -41 12 -9 13 -14 2 -25 -9 -9 -15
-10 -20 -2 -7 11 -45 34 -56 34 -3 0 -6 -12 -6 -26 0 -14 4 -22 10 -19 6 3 7
-1 4 -9 -3 -9 -2 -16 2 -16 5 0 25 -14 44 -30 l35 -30 -27 0 c-15 0 -30 5 -33
10 -4 6 -25 20 -48 31 -59 30 -177 110 -177 120 0 5 5 9 10 9 6 0 10 6 10 14
0 17 73 20 103 4 15 -8 17 -6 11 16 -5 21 -2 26 12 26 11 0 30 7 44 14 35 20
36 20 64 -17z m1236 2 c0 -12 -37 -12 -44 0 -3 4 -3 11 0 14 8 7 44 -4 44 -14z
m-407 -13 c12 -12 39 -29 60 -35 36 -12 56 -48 20 -37 -10 2 -58 13 -108 22
-49 10 -92 19 -94 21 -3 2 6 14 19 28 30 32 74 33 103 1z m1197 -18 c6 -24 16
-58 22 -77 8 -26 7 -35 -3 -42 -20 -12 -34 7 -63 89 l-26 72 30 0 c26 0 30 -5
40 -42z m-1051 11 c17 -6 31 -16 31 -21 0 -15 -70 -2 -89 17 -14 13 -13 15 5
15 12 0 35 -5 53 -11z m245 -9 c24 -9 26 -15 26 -66 0 -64 -23 -122 -54 -133
-33 -13 -197 -21 -236 -13 -21 5 -35 14 -35 22 0 8 -27 30 -60 49 -32 19 -54
36 -47 39 26 8 116 -20 157 -49 69 -50 159 -52 190 -5 19 29 35 120 24 137 -7
12 -3 29 6 29 2 0 15 -4 29 -10z m-389 -56 c86 -15 116 -26 103 -40 -7 -7
-215 34 -238 47 -25 14 35 11 135 -7z m527 -46 c35 -24 86 -54 115 -67 l52
-24 -19 -48 c-12 -31 -17 -60 -14 -79 8 -35 -2 -38 -66 -15 -82 29 -160 103
-160 152 0 27 20 123 26 123 2 0 32 -19 66 -42z m-631 2 c19 -16 21 -19 7 -20
-9 0 -29 5 -45 11 -22 8 -24 12 -13 19 21 13 25 13 51 -10z m-671 -35 c7 -8 8
-15 2 -15 -5 0 -15 7 -22 15 -7 8 -8 15 -2 15 5 0 15 -7 22 -15z m715 -11 c28
-7 72 -29 99 -49 70 -50 107 -57 247 -49 l119 7 47 -45 c27 -24 74 -55 106
-68 l59 -24 -6 -66 c-10 -96 -27 -206 -36 -219 -5 -9 -59 -1 -206 29 -109 23
-200 43 -202 45 -13 12 14 25 41 20 l32 -6 -29 17 c-36 20 -21 39 30 36 23 -2
33 1 29 8 -3 5 -15 10 -25 10 -11 0 -24 9 -30 20 -6 12 -16 17 -27 13 -11 -4
-14 -2 -11 8 3 8 24 16 54 19 l49 6 -42 8 c-39 7 -42 10 -32 28 9 17 18 19 62
14 51 -6 52 -6 18 7 -19 7 -39 20 -45 29 -7 12 -15 14 -32 6 -27 -13 -54 -4
-54 17 0 20 32 19 145 -5 49 -10 91 -17 93 -15 5 5 -19 11 -147 40 -63 14
-116 24 -117 22 -2 -2 -6 -30 -9 -63 -4 -32 -15 -98 -26 -145 l-20 -86 -102
23 c-56 13 -140 31 -187 40 -85 17 -126 34 -79 34 13 0 64 -6 112 -14 109 -16
101 -5 -13 19 -119 24 -134 37 -35 31 81 -5 78 1 -12 24 -63 16 -55 34 10 26
119 -16 128 -14 44 6 -78 19 -88 24 -85 42 3 19 9 21 63 19 l60 -2 -47 12
c-76 20 -70 30 15 24 42 -4 77 -5 77 -2 0 2 -27 9 -60 16 -59 11 -91 31 -71
43 5 3 42 2 82 -4 91 -13 101 -6 15 11 -84 16 -96 23 -75 44 13 13 23 14 68 4
29 -6 55 -9 57 -6 3 2 -12 8 -33 11 -60 11 -73 16 -73 31 0 27 37 26 135 -1z
m1108 -49 c15 -31 27 -61 27 -68 0 -23 -48 -59 -102 -77 -38 -13 -57 -26 -68
-47 -14 -27 -15 -24 -22 72 -4 55 -4 101 0 103 4 1 34 18 67 37 33 19 62 35
65 35 3 0 18 -25 33 -55z m-233 -25 c13 -8 12 -10 -2 -10 -10 0 -17 -5 -15
-11 1 -6 -4 -14 -12 -17 -10 -3 -12 0 -8 12 4 10 1 16 -8 16 -8 0 -15 5 -15
10 0 13 40 13 60 0z m-1102 -27 c-16 -39 -28 -51 -21 -22 6 23 21 49 29 49 2
0 -2 -12 -8 -27z m1134 -32 c4 -4 3 -23 -3 -44 -7 -28 -7 -47 3 -73 16 -45 4
-64 -49 -83 -91 -33 -158 36 -103 106 13 17 20 41 20 70 l0 44 63 -7 c34 -3
65 -9 69 -13z m285 -46 c102 -71 213 -86 311 -40 30 14 58 25 63 25 12 0 11
-183 -2 -311 -7 -73 -7 -125 0 -169 6 -35 8 -66 6 -69 -5 -4 -216 47 -224 54
-11 11 15 60 64 119 30 37 55 75 55 83 0 14 -3 14 -20 -2 -28 -26 -32 -15 -14
38 9 26 14 52 12 59 -7 19 -68 -96 -103 -195 -27 -75 -37 -91 -52 -89 -29 5
-347 83 -350 86 -6 6 67 330 76 339 10 10 143 86 151 87 3 0 15 -7 27 -15z
m-442 -185 c16 -18 16 -26 5 -100 -11 -71 -15 -80 -34 -80 -47 0 -50 11 -30
109 10 50 23 91 30 91 6 0 19 -9 29 -20z m205 -2 c0 -7 -11 -58 -24 -113 -23
-100 -23 -100 -52 -97 -16 2 -30 5 -32 7 -4 4 13 95 29 156 5 21 18 40 31 47
31 15 48 14 48 0z m-124 -8 c19 -8 24 -14 17 -21 -12 -12 -53 5 -53 21 0 12 2
12 36 0z m-1994 -27 c61 -19 57 -27 -8 -14 -100 19 -130 21 -149 7 -17 -12
-15 -21 49 -152 99 -203 99 -204 119 -221 21 -19 22 -33 3 -33 -26 0 -83 79
-114 158 -17 43 -47 111 -66 152 -20 41 -36 80 -36 87 0 6 10 19 23 28 26 19
99 14 179 -12z m-551 0 c4 -4 -42 -6 -103 -5 -71 3 -114 0 -121 -7 -6 -6 -15
-11 -19 -11 -13 0 -9 28 5 34 18 8 228 -1 238 -11z m184 -24 c54 -22 -3 -22
-85 1 l-75 21 65 -5 c36 -3 79 -10 95 -17z m2369 -10 c-2 -5 -16 -3 -29 3 -13
6 -22 15 -19 19 2 5 16 3 29 -3 13 -6 22 -15 19 -19z m-2930 12 c11 -4 15 -10
10 -13 -14 -9 -114 3 -114 13 0 11 77 11 104 0z m2912 -36 c18 -15 18 -15 -5
-13 -14 2 -26 9 -29 16 -5 17 10 15 34 -3z m-2521 -19 c23 -10 41 -27 52 -50
33 -70 -7 -53 -58 24 -9 14 -20 22 -24 18 -4 -4 9 -32 29 -62 34 -51 66 -115
66 -132 0 -4 -9 1 -20 11 -11 10 -20 23 -20 30 0 6 -7 20 -15 30 -33 43 -83
130 -79 137 8 12 31 10 69 -6z m-315 -60 c-14 -14 -37 11 -37 41 l0 27 23 -29
c14 -18 20 -33 14 -39z m929 53 c17 -6 31 -15 31 -20 0 -13 -14 -11 -28 3 -22
22 -24 0 -3 -40 19 -37 19 -52 0 -52 -13 0 -61 91 -55 106 6 17 14 17 55 3z
m-1196 -6 c23 -6 52 -62 39 -75 -17 -17 -40 -2 -47 31 -7 31 -20 47 -28 34 -3
-5 14 -47 37 -95 36 -75 40 -88 25 -88 -10 0 -23 6 -29 13 -19 23 -89 171 -84
179 5 8 55 9 87 1z m394 -41 c35 -52 68 -115 78 -149 5 -18 3 -22 -9 -17 -12
5 -116 192 -116 209 0 16 19 -1 47 -43z m2703 33 c8 -9 8 -15 2 -15 -18 0 -42
12 -42 21 0 14 26 10 40 -6z m-4 -40 c19 -14 19 -14 -2 -15 -12 0 -27 7 -34
15 -17 20 9 21 36 0z m-525 -60 c1063 -208 3570 -704 4124 -816 83 -17 164
-39 180 -49 65 -40 105 -107 105 -177 0 -20 -36 -215 -80 -434 -44 -218 -80
-400 -81 -405 0 -5 -4 0 -9 11 -7 17 -9 16 -10 -10 0 -25 -3 -28 -13 -15 -7 9
-29 15 -57 15 -46 0 -70 13 -70 37 0 24 -40 59 -63 56 -12 -2 -35 -21 -52 -43
-30 -39 -65 -58 -65 -35 0 6 -4 8 -10 5 -5 -3 -12 5 -16 19 -13 53 -56 54
-104 4 l-22 -23 7 23 c4 13 2 22 -4 22 -6 0 -11 -7 -11 -15 0 -8 -4 -15 -10
-15 -5 0 -10 4 -10 10 0 5 -34 9 -80 9 -44 0 -85 3 -91 7 -9 5 -10 2 -6 -9 4
-11 1 -17 -8 -17 -8 0 -15 5 -15 10 0 6 -5 10 -11 10 -6 0 -23 9 -39 20 -27
19 -27 21 -14 57 26 75 11 133 -36 133 -20 0 -49 -24 -51 -43 -1 -7 -2 -24 -3
-39 -1 -15 -10 -35 -19 -46 -9 -10 -17 -24 -17 -31 0 -6 -8 -14 -17 -18 -10
-3 -26 -13 -36 -21 -16 -14 -17 -14 -12 0 9 24 -22 77 -51 88 -20 8 -31 5 -54
-12 -16 -11 -27 -25 -24 -29 7 -12 -55 -3 -116 17 -30 10 -69 18 -87 18 l-34
1 6 53 6 54 -29 -21 c-16 -11 -43 -33 -60 -49 -24 -22 -32 -26 -36 -15 -3 8
-2 22 3 31 5 9 12 36 16 59 5 34 3 45 -14 62 -25 25 -44 27 -65 5 -9 -8 -16
-16 -16 -17 -1 -1 -3 -29 -7 -62 -6 -69 -8 -72 -26 -57 -8 7 -17 9 -20 5 -4
-3 -7 0 -7 8 0 12 -2 11 -10 -1 -9 -13 -11 -13 -20 0 -5 8 -10 31 -10 50 0 42
-24 80 -50 80 -22 0 -60 -45 -60 -70 0 -27 -27 -31 -43 -7 -12 18 -18 20 -28
9 -11 -10 -15 -6 -24 24 -13 49 -34 61 -74 44 -21 -8 -34 -22 -39 -44 -8 -29
-9 -30 -19 -11 -8 15 -8 34 3 75 20 76 13 100 -31 100 -38 0 -49 -13 -60 -73
-4 -21 -15 -45 -24 -54 -15 -16 -16 -13 -21 28 -4 36 -10 46 -34 58 -28 13
-31 12 -52 -12 -12 -14 -24 -24 -26 -22 -2 2 -15 5 -28 8 -71 11 -199 56 -224
79 -19 17 -18 18 32 19 29 1 57 3 62 4 6 1 15 3 21 4 20 2 -2 20 -39 31 -155
46 -303 79 -337 75 -27 -2 -31 5 -15 21 7 7 4 19 -10 37 -39 49 -74 140 -75
196 -1 31 -7 57 -13 59 -7 2 -12 2 -12 0 0 -27 -32 -221 -40 -244 l-11 -31
-82 17 c-45 10 -118 28 -162 40 -44 12 -98 27 -120 32 -53 12 -215 66 -237 78
-10 6 -29 10 -43 10 -14 0 -25 5 -25 10 0 6 -6 10 -14 10 -8 0 -54 14 -103 30
-48 17 -98 30 -110 30 -12 0 -32 4 -45 10 -128 53 -178 67 -238 69 -35 1 -78
5 -95 11 -58 18 -164 40 -194 40 -16 0 -33 5 -36 10 -4 6 -10 8 -14 6 -12 -8
-28 8 -35 37 -6 26 -5 27 39 27 25 0 45 4 45 9 0 5 -24 17 -52 26 -29 9 -66
23 -83 30 -16 7 -37 15 -45 18 -24 9 69 7 145 -3 59 -7 73 -6 88 7 20 19 8 33
-31 33 -13 0 -21 4 -17 10 5 8 -80 39 -109 40 -6 0 -33 12 -61 25 -27 14 -56
25 -62 25 -7 0 -13 4 -13 9 0 4 -20 14 -45 21 -25 7 -56 23 -70 36 -14 13 -47
33 -75 46 -35 16 -50 29 -50 43 -1 18 -2 17 -15 -5 -11 -20 -14 -21 -15 -7 0
11 -4 15 -12 11 -6 -4 -8 -3 -5 2 3 5 19 83 36 172 36 193 52 223 145 274 50
28 115 21 467 -47z m-2284 33 c26 -42 51 -123 43 -139 -19 -34 -74 -58 -164
-69 -49 -6 -97 -15 -106 -20 -25 -13 -117 -23 -137 -15 -19 8 13 16 213 54
106 20 154 42 154 70 0 8 -8 35 -17 59 l-18 44 -75 -6 -75 -5 80 18 c44 10 83
19 87 20 4 0 10 -5 15 -11z m538 -29 c-31 -9 -135 -2 -135 10 0 3 37 4 82 2
68 -3 78 -5 53 -12z m-732 -32 c22 -55 22 -57 -9 -57 -14 0 -23 4 -19 9 3 6
-4 25 -15 43 -25 42 -25 48 3 48 17 0 26 -10 40 -43z m637 12 c25 -6 72 -8
105 -5 l61 6 29 -67 c17 -37 31 -70 33 -75 2 -4 -8 -19 -22 -33 -21 -21 -34
-25 -78 -24 l-53 1 50 16 c60 21 65 35 33 108 l-23 54 -55 -2 c-30 -1 -70 1
-87 6 -39 9 -43 -5 -13 -44 25 -32 25 -42 -2 -38 -13 2 -22 11 -23 24 -1 11
-11 35 -23 51 -28 39 -28 47 1 38 12 -3 42 -11 67 -16z m-153 -135 c-3 -3 -12
-4 -19 -1 -8 3 -5 6 6 6 11 1 17 -2 13 -5z m426 -208 c3 -7 0 -19 -6 -26 -9
-10 -7 -11 11 -5 13 4 22 2 22 -4 0 -10 -14 -15 -32 -12 -4 0 -17 -7 -28 -16
-21 -19 -26 -48 -10 -58 6 -3 10 -19 10 -36 0 -22 5 -29 20 -29 58 0 272 -79
427 -158 23 -12 51 -22 61 -22 19 0 62 -50 62 -73 0 -52 -82 -32 -298 75 -34
17 -65 29 -67 26 -13 -13 30 -60 98 -104 99 -65 175 -140 160 -155 -18 -18
-170 60 -230 118 -70 69 -90 80 -161 88 -85 10 -85 -13 1 -55 34 -17 73 -42
87 -55 14 -12 36 -26 50 -30 45 -13 134 -62 163 -89 38 -35 32 -62 -12 -59
-19 1 -38 8 -42 16 -5 8 -37 24 -71 37 -35 12 -72 26 -83 30 -73 31 -140 49
-182 51 -51 2 -94 14 -103 29 -3 5 -24 13 -46 18 -40 9 -41 9 -38 -17 1 -14
16 -37 33 -51 22 -18 28 -29 22 -39 -8 -12 -18 -10 -64 12 -29 15 -61 35 -71
46 -17 19 -86 275 -86 323 0 56 4 58 109 58 l97 0 1 36 c1 33 28 68 45 58 4
-2 13 5 21 16 38 54 118 89 130 56z m924 -78 c-3 -8 -6 -5 -6 6 -1 11 2 17 5
13 3 -3 4 -12 1 -19z m-846 -21 c-10 -27 -41 -36 -41 -11 0 18 30 45 42 38 4
-3 3 -15 -1 -27z m-25 -62 c-3 -9 -11 -13 -16 -10 -8 5 -7 11 1 21 14 18 24
11 15 -11z m-122 -421 c4 -10 1 -14 -6 -12 -15 5 -23 28 -10 28 5 0 13 -7 16
-16z m108 -49 c77 -31 190 -104 185 -119 -7 -21 -43 -17 -68 7 -13 13 -45 29
-70 36 -51 14 -119 64 -119 87 0 18 0 18 72 -11z m2868 -347 c0 -23 -3 -26
-22 -22 -13 3 -29 6 -35 6 -21 2 -15 18 6 18 24 0 36 16 19 23 -7 3 -3 4 10 4
17 -1 22 -7 22 -29z m193 2 c13 0 39 -5 57 -12 31 -10 32 -12 12 -19 -12 -5
-22 -14 -21 -21 0 -10 2 -10 6 0 6 14 33 16 33 2 0 -5 5 -10 11 -10 6 0 8 7 5
16 -3 8 -2 12 4 9 12 -8 13 -35 1 -35 -4 0 -21 -12 -36 -27 -16 -16 -25 -22
-21 -15 12 20 -16 38 -66 44 -38 4 -48 2 -52 -11 -3 -9 -3 1 0 22 3 22 1 37
-5 37 -6 0 -8 -7 -5 -15 4 -8 1 -15 -6 -15 -6 0 -10 10 -8 23 2 13 10 22 20
21 11 -1 14 4 11 13 -5 13 -2 13 15 4 11 -6 32 -11 45 -11z m54 -172 c-3 -8
-6 -5 -6 6 -1 11 2 17 5 13 3 -3 4 -12 1 -19z m1303 -207 c0 -5 -7 -12 -16
-15 -14 -5 -15 -4 -4 9 14 17 20 19 20 6z m-3566 -387 c31 -30 16 -45 -18 -19
-24 18 -46 3 -46 -30 0 -26 20 -38 41 -24 10 6 10 9 2 9 -7 0 -13 5 -13 11 0
7 11 9 30 6 16 -4 32 -2 35 3 3 6 17 10 31 10 48 0 48 -79 0 -88 -23 -5 -46
16 -46 40 0 19 -1 19 -19 -3 -16 -20 -23 -22 -47 -14 -17 6 -33 21 -38 37 -20
56 48 103 88 62z m204 -66 c17 -17 15 -53 -3 -68 -8 -7 -25 -10 -40 -6 -43 11
-30 86 15 86 9 0 21 -5 28 -12z m77 -13 c22 0 30 -24 21 -61 -9 -36 -26 -29
-26 12 0 42 -23 43 -28 1 -2 -16 -10 -27 -18 -27 -11 0 -13 7 -8 28 12 56 15
62 27 55 7 -4 21 -7 32 -8z m119 -21 c16 -6 22 -48 10 -77 -8 -23 -69 -7 -69
18 0 14 8 21 28 23 15 2 27 8 27 14 0 6 -9 8 -20 5 -20 -5 -26 3 -13 16 8 9
17 9 37 1z m99 -16 c4 -12 1 -25 -5 -29 -6 -4 -8 -18 -4 -34 6 -22 4 -26 -11
-23 -14 2 -18 13 -19 43 -1 58 27 89 39 43z m107 2 c0 -5 -7 -10 -15 -10 -8 0
-15 5 -15 10 0 6 7 10 15 10 8 0 15 -4 15 -10z m-26 -22 c15 1 17 -4 12 -30
-3 -17 -6 -37 -6 -44 0 -8 -7 -14 -15 -14 -13 0 -15 7 -9 35 5 28 3 35 -9 35
-9 0 -18 -13 -22 -30 -8 -35 -25 -40 -25 -7 0 48 11 68 34 61 11 -4 29 -7 40
-6z m99 -25 c13 -7 8 -50 -8 -63 -8 -7 -24 -10 -35 -7 -15 4 -20 0 -20 -14 0
-11 -7 -19 -16 -19 -12 0 -15 6 -11 23 3 12 9 39 13 60 6 36 8 38 38 31 17 -3
34 -8 39 -11z m204 -19 c-9 -9 -28 6 -21 18 4 6 10 6 17 -1 6 -6 8 -13 4 -17z
m-136 -11 l0 -28 16 23 c21 30 33 28 33 -5 l0 -28 21 25 c13 16 22 21 25 13 3
-7 12 -9 21 -6 13 5 15 0 9 -33 -9 -46 -14 -56 -26 -49 -5 3 -7 20 -4 38 5 30
5 31 -10 13 -9 -11 -16 -23 -16 -28 0 -4 -7 -8 -15 -8 -8 0 -15 9 -15 20 0 26
-17 26 -25 1 -11 -36 -35 -12 -35 35 0 47 20 63 21 17z m183 -10 c4 -9 1 -20
-5 -24 -7 -4 -12 -21 -11 -39 1 -45 -22 -33 -26 14 -2 21 -1 44 2 52 7 19 32
18 40 -3z m41 -3 c-4 -14 -2 -18 7 -15 7 3 19 1 26 -4 17 -10 12 -73 -6 -79
-10 -3 -13 5 -10 28 4 44 -20 53 -28 11 -4 -18 -13 -31 -21 -31 -9 0 -12 7 -9
18 3 9 8 34 12 55 4 23 12 37 21 37 10 0 12 -6 8 -20z m145 -10 c0 -5 -4 -10
-9 -10 -5 0 -7 -9 -4 -20 3 -11 1 -20 -5 -20 -6 0 -13 -13 -17 -30 -4 -16 -11
-30 -16 -30 -10 0 -6 75 6 103 8 18 45 24 45 7z m90 -20 c0 -5 -7 -10 -15 -10
-8 0 -15 5 -15 10 0 6 7 10 15 10 8 0 15 -4 15 -10z m-12 -25 c1 -1 0 -21 -4
-44 -4 -26 -12 -41 -21 -41 -11 0 -12 8 -7 35 5 28 3 35 -10 35 -10 0 -19 -11
-22 -30 -8 -35 -24 -40 -24 -7 0 54 10 66 48 60 21 -3 38 -7 40 -8z m70 -17
c7 -7 12 -21 12 -31 0 -15 -5 -18 -25 -13 -14 4 -25 2 -25 -4 0 -5 9 -10 20
-10 11 0 20 -4 20 -10 0 -14 -43 -13 -58 2 -17 17 -15 44 4 62 19 19 36 20 52
4z m86 -14 c9 -3 16 -16 16 -27 0 -20 1 -20 14 -2 8 12 20 16 35 12 14 -3 24
1 30 11 16 29 24 5 14 -45 -8 -46 -10 -48 -38 -45 -17 2 -36 11 -44 20 -10 12
-15 14 -18 5 -9 -26 -24 -12 -21 19 4 42 -20 50 -28 9 -4 -17 -13 -31 -20 -31
-14 0 -13 21 2 68 4 13 32 16 58 6z m186 -49 c0 -13 -4 -14 -20 -5 -12 7 -20
7 -20 1 0 -5 9 -13 20 -16 11 -3 20 -15 20 -26 0 -14 -7 -19 -29 -19 -17 0
-33 5 -36 11 -11 17 3 23 20 9 8 -7 15 -9 15 -5 0 4 -10 15 -22 24 -27 22 -16
41 23 41 19 0 29 -5 29 -15z m-2380 -251 c31 -7 32 -8 26 -48 -9 -55 -17 -61
-68 -50 -38 8 -43 13 -41 34 8 72 14 77 83 64z m-820 -94 l15 -85 48 73 c34
53 52 72 63 68 9 -3 20 -6 25 -6 18 0 8 -21 -48 -105 -51 -77 -59 -85 -88 -85
-18 0 -37 6 -42 13 -10 12 -43 167 -43 200 0 14 6 18 27 15 27 -3 29 -7 43
-88z m856 -15 c-17 -26 -46 -31 -81 -14 -15 7 -12 8 15 4 40 -5 60 4 65 31 2
10 4 24 5 29 1 6 4 2 7 -8 3 -10 -3 -29 -11 -42z m4845 -147 l0 -23 11 23 c6
12 15 22 20 22 5 0 2 -13 -7 -30 -16 -31 -35 -40 -35 -16 0 8 -3 21 -6 30 -3
9 -1 16 5 16 6 0 11 -10 12 -22z m46 -35 c-3 -10 -5 -4 -5 12 0 17 2 24 5 18
2 -7 2 -21 0 -30z m45 18 c-10 -6 -10 -10 2 -20 12 -10 15 -9 19 6 4 15 5 14
6 -4 1 -18 -4 -21 -26 -20 -35 3 -45 47 -10 47 15 0 18 -3 9 -9z m58 -16 c-7
-8 -9 -19 -5 -25 3 -5 1 -10 -4 -10 -12 0 -15 42 -5 53 13 12 25 -5 14 -18z
m80 5 c0 -5 -8 -7 -17 -4 -16 5 -16 4 1 -10 10 -8 15 -19 11 -25 -8 -14 -32
-14 -40 -1 -3 6 1 7 9 4 9 -3 16 -1 16 5 0 6 -4 11 -10 11 -5 0 -10 7 -10 15
0 8 9 15 20 15 11 0 20 -4 20 -10z m50 -34 c-4 -4 -6 -15 -3 -24 4 -10 2 -13
-5 -8 -13 8 -16 48 -5 59 4 4 10 2 14 -5 5 -7 4 -17 -1 -22z m-33 -13 c-3 -10
-5 -4 -5 12 0 17 2 24 5 18 2 -7 2 -21 0 -30z m81 9 c2 -7 -5 -12 -15 -13 -16
0 -16 -1 2 -9 19 -8 19 -9 -2 -9 -16 -1 -23 5 -23 17 0 32 28 42 38 14z"/>
<path d="M1475 8730 c-3 -5 -1 -10 4 -10 6 0 11 5 11 10 0 6 -2 10 -4 10 -3 0
-8 -4 -11 -10z"/>
<path d="M3374 8574 c9 -8 22 -13 29 -11 9 4 9 6 -1 6 -7 1 -10 6 -7 11 3 6
-3 10 -15 10 -20 0 -20 -1 -6 -16z"/>
<path d="M4230 7510 c0 -5 5 -10 11 -10 5 0 7 5 4 10 -3 6 -8 10 -11 10 -2 0
-4 -4 -4 -10z"/>
<path d="M1546 7802 c-2 -4 -1 -14 3 -21 6 -10 10 -9 14 3 6 16 -8 32 -17 18z"/>
<path d="M5946 6254 c-3 -9 -6 -27 -6 -42 0 -31 15 -19 24 20 7 29 -8 48 -18
22z"/>
<path d="M5932 6168 c-11 -14 -15 -33 -13 -63 1 -16 3 -17 10 -5 9 16 23 80
17 80 -2 0 -8 -6 -14 -12z"/>
<path d="M4697 6716 c5 -22 8 -24 30 -13 23 10 24 12 7 24 -28 20 -42 16 -37
-11z"/>
<path d="M4960 5980 c0 -5 5 -10 10 -10 6 0 10 5 10 10 0 6 -4 10 -10 10 -5 0
-10 -4 -10 -10z"/>
<path d="M2135 5870 c-3 -5 1 -10 9 -10 8 0 18 5 21 10 3 6 -1 10 -9 10 -8 0
-18 -4 -21 -10z"/>
<path d="M2175 5860 c-3 -5 3 -10 14 -10 11 0 23 5 26 10 3 6 -3 10 -14 10
-11 0 -23 -4 -26 -10z"/>
<path d="M2225 5850 c-3 -5 3 -10 15 -10 12 0 18 5 15 10 -3 6 -10 10 -15 10
-5 0 -12 -4 -15 -10z"/>
<path d="M2120 5802 c0 -44 2 -45 72 -58 34 -6 39 -4 48 21 20 54 15 60 -70
71 l-50 7 0 -41z m81 2 c10 -13 10 -17 -2 -25 -23 -14 -39 -10 -39 9 0 34 20
42 41 16z"/>
<path d="M3200 5241 c0 -11 16 -15 182 -41 152 -24 138 -23 138 -5 0 8 -6 15
-12 15 -7 0 -71 9 -142 20 -145 23 -166 24 -166 11z"/>
<path d="M3170 5145 c0 -35 34 -99 63 -118 94 -61 210 -31 236 61 9 31 8 32
-29 42 -40 11 -223 40 -252 40 -13 0 -18 -8 -18 -25z m148 -10 c151 -24 143
-20 130 -55 -15 -45 -53 -70 -105 -70 -79 0 -133 39 -153 111 -10 35 -10 35
128 14z"/>
<path d="M3350 5095 c0 -8 7 -15 15 -15 8 0 15 7 15 15 0 8 -7 15 -15 15 -8 0
-15 -7 -15 -15z"/>
<path d="M3666 5151 c10 -11 173 -41 219 -41 55 0 11 18 -86 34 -111 18 -147
20 -133 7z"/>
<path d="M3625 5067 c-4 -8 -2 -32 4 -54 30 -109 194 -124 246 -22 21 39 17
42 -80 64 -115 27 -164 30 -170 12z m143 -23 c56 -9 102 -22 102 -27 0 -22
-43 -66 -75 -77 -41 -14 -103 0 -129 29 -23 26 -35 107 -15 99 8 -3 61 -14
117 -24z"/>
<path d="M3735 5030 c-4 -6 -3 -16 3 -22 6 -6 12 -6 17 2 4 6 3 16 -3 22 -6 6
-12 6 -17 -2z"/>
<path d="M3567 4943 c-4 -38 -7 -91 -7 -119 0 -81 -9 -112 -34 -116 -17 -3
-18 -4 -4 -10 37 -15 46 11 53 165 7 153 2 196 -8 80z"/>
<path d="M3435 4535 c34 -16 75 -19 75 -6 0 13 -27 21 -68 20 l-37 -1 30 -13z"/>
<path d="M4453 4951 c-34 -22 -45 -45 -45 -99 0 -46 30 -72 84 -72 47 0 82 32
100 92 10 34 9 42 -9 66 -26 35 -84 41 -130 13z m101 -17 c23 -9 20 -56 -5
-88 -38 -48 -129 -27 -115 27 13 52 69 81 120 61z"/>
<path d="M4616 4871 c-18 -79 -20 -111 -7 -111 5 0 12 11 15 25 9 36 34 31 84
-17 l44 -43 -33 59 -33 59 39 34 c49 42 39 53 -19 19 -24 -14 -48 -26 -53 -26
-5 0 -7 16 -5 35 7 62 -16 37 -32 -34z"/>
<path d="M4774 4745 c-4 -10 -1 -21 7 -26 20 -12 34 -5 34 17 0 24 -33 31 -41
9z"/>
<path d="M285 5220 c-3 -5 -2 -10 4 -10 5 0 13 5 16 10 3 6 2 10 -4 10 -5 0
-13 -4 -16 -10z"/>
<path d="M1860 4100 c0 -5 5 -10 11 -10 5 0 7 5 4 10 -3 6 -8 10 -11 10 -2 0
-4 -4 -4 -10z"/>
<path d="M3212 3536 c1 -10 8 -17 13 -17 15 1 12 24 -3 29 -9 3 -13 -2 -10
-12z"/>
<path d="M830 2371 c0 -5 7 -12 16 -15 14 -5 15 -4 4 9 -14 17 -20 19 -20 6z"/>
<path d="M1025 2335 c11 -9 26 -13 33 -10 8 3 21 5 29 5 33 0 2 13 -39 16 -40
3 -42 3 -23 -11z"/>
<path d="M4275 1799 c-11 -17 1 -21 15 -4 8 9 8 15 2 15 -6 0 -14 -5 -17 -11z"/>
<path d="M2050 1024 c0 -31 23 -28 28 4 2 15 -2 22 -12 22 -11 0 -16 -9 -16
-26z"/>
<path d="M2166 1014 c-9 -24 12 -44 24 -24 5 8 8 19 7 24 -6 17 -24 17 -31 0z"/>
<path d="M2370 950 c0 -5 5 -10 10 -10 6 0 10 5 10 10 0 6 -4 10 -10 10 -5 0
-10 -4 -10 -10z"/>
<path d="M2630 910 c0 -11 7 -20 15 -20 8 0 15 9 15 20 0 11 -7 20 -15 20 -8
0 -15 -9 -15 -20z"/>
<path d="M3235 810 c-3 -5 1 -10 10 -10 9 0 13 5 10 10 -3 6 -8 10 -10 10 -2
0 -7 -4 -10 -10z"/>
<path d="M3404 765 c-9 -23 14 -45 26 -25 5 8 8 19 7 24 -6 17 -27 18 -33 1z"/>
<path d="M4251 10024 l-35 -34 22 -23 c12 -13 22 -28 22 -34 0 -5 15 -23 33
-40 31 -28 36 -29 59 -17 14 7 28 20 32 29 3 8 11 15 18 16 7 0 28 18 47 40
32 37 33 41 17 58 -9 9 -16 23 -16 29 0 7 -4 12 -10 12 -5 0 -10 -12 -10 -26
0 -21 -3 -25 -17 -19 -10 4 -36 12 -58 17 -22 5 -44 13 -49 19 -13 12 -16 11
-55 -27z"/>
<path d="M5507 10054 c-15 -15 -6 -24 24 -24 20 0 29 4 27 13 -5 14 -40 21
-51 11z"/>
<path d="M5548 10017 c-15 -12 -15 -14 2 -24 21 -14 30 -8 30 19 0 21 -8 22
-32 5z"/>
<path d="M4140 10002 c0 -10 7 -39 16 -65 15 -45 15 -46 -15 -103 -16 -32 -27
-62 -24 -67 3 -6 1 -7 -4 -4 -6 4 -18 -9 -28 -29 -17 -37 -9 -64 20 -64 8 0
15 -4 17 -8 5 -12 65 -52 77 -52 6 0 11 10 11 21 0 12 9 36 20 53 10 18 20 52
22 77 3 37 0 44 -14 41 -15 -2 -18 5 -18 36 0 22 -7 59 -15 82 -11 32 -12 46
-4 56 16 19 -6 44 -37 44 -17 0 -24 -6 -24 -18z m-28 -297 c6 -28 -6 -34 -16
-9 -8 22 -7 34 3 34 5 0 11 -11 13 -25z"/>
<path d="M5332 9994 c-27 -19 -29 -63 -4 -94 16 -19 22 -21 40 -11 13 7 20 16
17 22 -4 5 3 9 14 9 12 0 21 5 21 11 0 6 -9 9 -20 6 -10 -3 -25 1 -31 9 -10
12 -8 18 7 29 10 8 25 15 32 15 7 0 10 5 7 10 -9 15 -58 12 -83 -6z"/>
<path d="M2628 9898 c-3 -13 -9 -31 -13 -40 -4 -10 -3 -18 3 -18 5 0 13 16 17
36 7 39 1 59 -7 22z"/>
<path d="M5510 9900 c0 -5 5 -10 10 -10 6 0 10 5 10 10 0 6 -4 10 -10 10 -5 0
-10 -4 -10 -10z"/>
<path d="M4815 9880 c-4 -6 -13 -9 -21 -6 -27 10 -44 -5 -44 -40 0 -29 3 -34
24 -34 14 0 28 -4 31 -10 3 -5 24 -10 45 -10 50 0 70 28 45 66 -8 13 -23 24
-33 24 -10 0 -23 5 -29 11 -8 8 -13 8 -18 -1z"/>
<path d="M4524 9795 c-29 -29 -44 -32 -44 -8 0 13 -6 11 -30 -12 -16 -15 -46
-35 -66 -44 l-38 -17 75 2 c79 1 89 -4 89 -48 0 -25 2 -27 36 -22 20 2 53 18
74 34 21 17 42 30 48 30 16 0 23 30 12 50 -32 60 -112 78 -156 35z m106 -20
c11 -13 8 -15 -18 -15 -31 0 -47 11 -35 24 11 11 40 6 53 -9z"/>
<path d="M5110 9806 c0 -2 7 -6 15 -10 8 -3 15 -1 15 4 0 6 -7 10 -15 10 -8 0
-15 -2 -15 -4z"/>
<path d="M4995 9759 c-4 -5 -18 -14 -31 -19 -13 -5 -24 -16 -24 -25 0 -28 74
-114 116 -135 58 -29 68 -27 61 14 -6 40 0 51 21 33 8 -6 35 -19 61 -28 34
-12 45 -21 43 -33 -2 -13 3 -17 20 -14 30 4 34 31 9 60 -11 13 -29 34 -40 47
-11 13 -19 26 -17 30 6 10 -62 86 -70 79 -4 -4 -1 -14 6 -23 7 -8 10 -22 6
-30 -4 -13 -13 -8 -40 20 -28 29 -42 35 -75 35 -22 0 -43 -5 -46 -11z m55 -28
c0 -6 -5 -13 -10 -16 -15 -9 -43 3 -35 15 8 13 45 13 45 1z"/>
<path d="M4765 9670 c3 -5 8 -10 11 -10 2 0 4 5 4 10 0 6 -5 10 -11 10 -5 0
-7 -4 -4 -10z"/>
<path d="M4815 9663 c6 -20 3 -23 -24 -23 -18 0 -34 7 -39 17 -9 16 -12 16
-36 -1 -25 -16 -26 -20 -20 -79 5 -51 3 -66 -10 -79 -9 -9 -16 -21 -16 -26 0
-25 -75 -23 -93 2 -9 13 -67 -46 -67 -68 0 -8 16 -37 35 -66 19 -29 33 -56 30
-60 -3 -5 -1 -11 5 -15 5 -3 10 -1 10 5 0 6 10 4 24 -6 23 -15 26 -14 38 5 7
12 22 21 33 21 24 -1 55 -22 55 -39 0 -15 17 -14 22 1 3 8 26 13 57 15 46 1
53 -1 63 -23 9 -19 18 -24 47 -23 20 0 30 3 24 6 -7 2 -13 9 -13 14 0 6 4 8 8
5 5 -3 28 14 51 38 38 39 42 48 36 75 -8 38 -42 62 -83 59 -34 -2 -57 13 -78
53 -18 36 -18 53 3 96 15 32 15 39 2 62 -8 14 -24 28 -34 30 -11 2 -24 8 -28
15 -5 6 -6 1 -2 -11z"/>
<path d="M4922 9164 c-25 -29 -23 -46 3 -20 9 9 20 16 24 16 4 0 8 7 8 15 0
21 -9 18 -35 -11z"/>
<path d="M5340 9145 c0 -8 7 -15 15 -15 9 0 12 6 9 15 -4 8 -10 15 -15 15 -5
0 -9 -7 -9 -15z"/>
<path d="M4856 9105 c-13 -20 -14 -25 -2 -25 7 0 16 10 19 22 9 31 2 33 -17 3z"/>
<path d="M5267 9082 c-5 -7 -24 -19 -44 -27 -28 -12 -34 -19 -30 -35 6 -23
-12 -39 -23 -20 -5 8 -8 4 -8 -11 0 -13 -5 -36 -11 -51 -10 -26 -12 -26 -36
-14 -16 8 -42 12 -66 9 -25 -4 -46 0 -61 9 -20 13 -25 13 -36 2 -7 -8 -20 -14
-29 -14 -12 0 -14 7 -10 30 4 16 2 32 -3 35 -11 7 -42 -24 -35 -35 3 -5 -5
-10 -17 -12 -15 -2 -24 -13 -30 -34 -4 -18 -15 -35 -24 -38 -8 -3 -12 -2 -9 4
9 15 -22 12 -57 -6 -27 -14 -29 -18 -15 -26 13 -7 15 -13 7 -28 -14 -27 -12
-40 6 -40 11 0 15 -8 13 -27 -1 -16 3 -39 8 -52 10 -24 10 -24 15 -3 7 25 28
30 28 6 0 -12 6 -15 25 -10 15 4 25 2 25 -4 0 -6 4 -9 10 -5 5 3 25 -1 45 -9
19 -8 43 -12 51 -9 9 3 20 0 25 -8 13 -20 11 -29 -6 -29 -8 0 -15 -5 -15 -11
0 -6 12 -9 28 -7 15 2 27 8 27 14 0 21 34 44 65 44 39 0 70 16 70 35 0 8 5 15
10 15 6 0 10 7 10 16 0 8 -4 12 -10 9 -5 -3 -10 1 -10 10 0 8 6 18 14 21 8 3
18 18 21 34 3 16 13 34 21 41 8 6 14 19 14 29 0 10 14 44 30 76 23 43 30 69
28 98 -2 26 -6 36 -11 28z m-482 -232 c3 -5 -3 -10 -15 -10 -12 0 -18 5 -15
10 3 6 10 10 15 10 5 0 12 -4 15 -10z m15 -40 c0 -5 -9 -14 -19 -19 -14 -8
-20 -7 -24 3 -3 8 -3 17 0 20 10 10 43 7 43 -4z"/>
<path d="M4179 9035 c-5 -34 -3 -75 4 -75 4 0 26 -17 47 -37 81 -78 116 -98
183 -108 26 -4 54 -13 60 -20 7 -6 29 -17 48 -24 25 -8 41 -23 55 -48 10 -20
23 -45 29 -55 10 -18 25 -25 25 -10 0 4 -5 13 -10 18 -6 6 -13 31 -16 55 -19
185 -28 215 -58 190 -19 -16 -90 10 -95 35 -5 27 -32 43 -61 37 -45 -8 -182
15 -196 35 -7 9 -14 13 -15 7z"/>
<path d="M5305 9009 c-4 -6 -5 -12 -2 -15 2 -3 7 2 10 11 7 17 1 20 -8 4z"/>
<path d="M5201 8802 c-7 -13 -11 -26 -8 -28 8 -8 29 25 25 38 -3 8 -9 4 -17
-10z"/>
<path d="M4702 8734 c-26 -18 -29 -47 -6 -42 21 4 48 44 36 52 -5 3 -18 -2
-30 -10z"/>
<path d="M4649 8633 c5 -10 12 -27 16 -38 6 -19 7 -19 16 -2 7 12 7 22 0 31
-6 7 -8 16 -4 19 3 4 -3 7 -15 7 -18 0 -20 -3 -13 -17z"/>
<path d="M124 5042 c4 -6 -3 -16 -15 -22 -29 -16 -17 -23 15 -9 27 13 30 29 6
37 -7 3 -10 0 -6 -6z"/>
<path d="M160 5039 c0 -5 5 -7 10 -4 6 3 10 8 10 11 0 2 -4 4 -10 4 -5 0 -10
-5 -10 -11z"/>
<path d="M534 4989 c-3 -5 2 -9 12 -9 13 0 14 -3 5 -13 -6 -8 -8 -17 -4 -20 3
-4 12 1 20 11 9 12 13 13 11 3 -5 -24 30 -24 42 -1 6 12 10 23 8 24 -10 9 -89
13 -94 5z"/>
<path d="M1327 4977 c-5 -15 2 -37 13 -37 4 0 10 9 13 19 5 21 -18 38 -26 18z"/>
<path d="M1155 4875 c-5 -2 -27 -6 -48 -10 -56 -9 -35 -28 22 -20 71 10 91 16
85 26 -5 9 -39 11 -59 4z"/>
<path d="M220 4840 c0 -5 7 -10 16 -10 8 0 12 5 9 10 -3 6 -10 10 -16 10 -5 0
-9 -4 -9 -10z"/>
<path d="M260 4830 c0 -5 7 -10 16 -10 8 0 12 5 9 10 -3 6 -10 10 -16 10 -5 0
-9 -4 -9 -10z"/>
<path d="M1315 4821 c11 -11 36 -23 55 -27 33 -6 34 -5 15 8 -11 8 -36 20 -55
27 l-35 12 20 -20z"/>
<path d="M1135 4794 l-40 -24 34 0 c19 0 31 3 28 7 -4 3 0 15 10 25 20 22 18
22 -32 -8z"/>
<path d="M1198 4773 c-58 -19 -55 -30 5 -25 34 3 46 9 50 23 6 22 6 22 -55 2z"/>
<path d="M6025 4746 c-270 -53 -515 -250 -621 -497 -186 -437 48 -962 501
-1123 114 -40 182 -50 320 -49 117 1 139 4 225 33 142 47 256 113 349 202 59
57 149 191 170 250 11 34 10 40 -9 60 -11 12 -23 33 -27 46 -3 12 -14 27 -24
33 -11 5 -19 18 -19 27 0 10 -4 22 -9 27 -21 23 -71 127 -71 150 0 13 -4 26
-9 29 -13 8 -21 59 -11 72 5 5 12 39 15 74 7 77 22 103 75 130 l40 20 0 64 c0
59 -3 67 -50 134 -92 130 -282 257 -455 303 -103 27 -292 34 -390 15z"/>
<path d="M70 490 c-21 -13 -3 -27 48 -35 32 -5 42 -4 42 7 0 33 -55 50 -90 28z"/>
<path d="M3985 110 c-16 -7 -17 -9 -3 -9 9 -1 20 4 23 9 7 11 7 11 -20 0z"/>
<path d="M79 20 l-24 -19 60 0 60 0 -24 19 c-13 11 -29 20 -36 20 -7 0 -23 -9
-36 -20z"/>
</g>
</svg>
